<svg xmlns="http://www.w3.org/2000/svg" height="300" width="600" viewBox="0 0 600 300">
  <defs>
    <linearGradient id="bg" x1="300" y1="0" x2="300" y2="300" gradientUnits="userSpaceOnUse">
      <stop offset="0" stop-color="#3d3846"/>
      <stop offset="1" stop-color="#241f31"/>
    </linearGradient>
    <filter id="ws" x="-6%" y="-8%" width="112%" height="120%">
      <feGaussianBlur in="SourceAlpha" stdDeviation="6"/>
      <feOffset dy="4"/>
      <feComponentTransfer>
        <feFuncA type="linear" slope="0.3"/>
      </feComponentTransfer>
      <feMerge>
        <feMergeNode/>
        <feMergeNode in="SourceGraphic"/>
      </feMerge>
    </filter>
    <filter id="cs" x="-12%" y="-12%" width="130%" height="140%">
      <feGaussianBlur in="SourceAlpha" stdDeviation="3"/>
      <feOffset dy="2"/>
      <feComponentTransfer>
        <feFuncA type="linear" slope="0.2"/>
      </feComponentTransfer>
      <feMerge>
        <feMergeNode/>
        <feMergeNode in="SourceGraphic"/>
      </feMerge>
    </filter>
  </defs>
  <path d="M66.6 61.732v.56a35.08 35.08 45 0035.08 35.08h17.948a8 8 45 018 8v3.28a8 8 135 01-8 8H45.68a35.08 35.08 135 00-35.08 35.08v.56a35.08 35.08 45 0035.08 35.08H148a8 8 45 018 8v2a8 8 135 01-8 8h-4.32a35.08 35.08 135 00-35.08 35.08v.56a35.08 35.08 45 0035.08 35.08h377.84a35.08 35.08 135 0035.08-35.08v-.56a35.08 35.08 45 00-35.08-35.08H276a8 8 45 01-8-8v-2a8 8 135 018-8h79.52a35.08 35.08 135 0035.08-35.08v-.56a35.08 35.08 45 00-35.08-35.08h-21.303a9.617 9.617 45 01-9.617-9.617v-.046a9.617 9.617 135 019.617-9.617h7.303a35.08 35.08 135 0035.08-35.08v-.56a35.08 35.08 45 00-35.08-35.08H101.68a35.08 35.08 135 00-35.08 35.08z" fill="url(#bg)"/>
  <g transform="translate(175 170)" opacity="0.35">
    <ellipse rx="22" ry="8" fill="none" stroke="#fff" stroke-width="1.5"/>
    <ellipse rx="22" ry="8" fill="none" stroke="#fff" stroke-width="1.5" transform="rotate(60)"/>
    <ellipse rx="22" ry="8" fill="none" stroke="#fff" stroke-width="1.5" transform="rotate(-60)"/>
    <circle r="3" fill="#fff"/>
  </g>
  <g transform="translate(175 100) scale(1.3)">
    <path d="M0-10L14-3 0 4-14-3Z" fill="#99c1f1"/>
    <path d="M-14-3L0 4 0 19-14 12Z" fill="#f66151"/>
    <path d="M14-3L14 12 0 19 0 4Z" fill="#57e389"/>
  </g>
  <g filter="url(#cs)">
    <rect x="20" y="18" width="125" height="70" rx="8" fill="#fff"/>
    <rect x="32" y="28" width="60" height="6" rx="3" fill="#3584e4"/>
    <rect x="32" y="42" width="55" height="18" rx="9" fill="#57e389"/>
    <rect x="42" y="48" width="35" height="6" rx="3" fill="#fff"/>
    <rect x="32" y="68" width="45" height="4" rx="2" fill="#deddda"/>
  </g>
  <g filter="url(#cs)">
    <rect x="35" y="115" width="115" height="65" rx="8" fill="#fff"/>
    <rect x="47" y="125" width="50" height="6" rx="3" fill="#f66151"/>
    <rect x="47" y="140" width="91" height="5" rx="2.5" fill="#deddda"/>
    <rect x="47" y="150" width="91" height="5" rx="2.5" fill="#deddda"/>
    <rect x="47" y="160" width="65" height="5" rx="2.5" fill="#deddda"/>
  </g>
  <g filter="url(#cs)">
    <rect x="12" y="210" width="135" height="68" rx="8" fill="#fff"/>
    <rect x="24" y="220" width="72" height="6" rx="3" fill="#e5a50a"/>
    <rect x="24" y="234" width="106" height="18" rx="6" fill="#3d3846"/>
    <circle cx="35" cy="243" r="3.5" fill="#5e5c64"/>
    <circle cx="45" cy="243" r="3.5" fill="#5e5c64"/>
    <rect x="57" y="239" width="35" height="8" rx="4" fill="#5e5c64"/>
    <rect x="24" y="260" width="55" height="4" rx="2" fill="#deddda"/>
  </g>
  <g filter="url(#ws)">
    <rect x="220" y="30" width="320" height="240" rx="12" fill="#f6f5f4"/>
    <path d="M232 30h296a12 12 0 0 1 12 12v24H220V42a12 12 0 0 1 12-12z" fill="#3d3846"/>
    <circle cx="240" cy="48" r="6" fill="#5e5c64"/>
    <circle cx="256" cy="48" r="6" fill="#5e5c64"/>
    <circle cx="272" cy="48" r="6" fill="#5e5c64"/>
    <rect x="340" y="44" width="80" height="8" rx="4" fill="#5e5c64"/>
    <path d="M220 66h75v204H232a12 12 0 0 1-12-12V66z" fill="#ededed"/>
    <line x1="295" y1="66" x2="295" y2="265" stroke="#deddda" stroke-width="1"/>
    <rect x="232" y="78" width="51" height="7" rx="3.5" fill="#9a9996"/>
    <rect x="232" y="94" width="51" height="7" rx="3.5" fill="#3584e4"/>
    <rect x="232" y="110" width="51" height="7" rx="3.5" fill="#9a9996"/>
    <rect x="232" y="126" width="38" height="7" rx="3.5" fill="#9a9996"/>
    <rect x="310" y="78" width="130" height="10" rx="4" fill="#3d3846"/>
    <rect x="310" y="96" width="90" height="7" rx="3.5" fill="#9a9996"/>
    <rect x="310" y="116" width="85" height="28" rx="14" fill="#3584e4"/>
    <rect x="324" y="126" width="57" height="8" rx="4" fill="#fff"/>
    <rect x="310" y="158" width="210" height="5" rx="2.5" fill="#c0bfbc"/>
    <rect x="310" y="169" width="180" height="5" rx="2.5" fill="#c0bfbc"/>
    <rect x="310" y="180" width="195" height="5" rx="2.5" fill="#c0bfbc"/>
    <rect x="310" y="198" width="210" height="52" rx="8" fill="#fff" stroke="#deddda" stroke-width="1"/>
    <rect x="322" y="210" width="90" height="7" rx="3.5" fill="#3d3846"/>
    <rect x="322" y="223" width="150" height="5" rx="2.5" fill="#9a9996"/>
    <rect x="322" y="234" width="120" height="5" rx="2.5" fill="#9a9996"/>
    <circle cx="506" cy="224" r="10" fill="#57e389"/>
    <path d="M501 225l3 3 7-8" fill="none" stroke="#fff" stroke-width="2" stroke-linecap="round" stroke-linejoin="round"/>
  </g>
  <circle cx="180" cy="40" r="2.5" fill="#fff" opacity="0.2"/>
  <circle cx="190" cy="60" r="2" fill="#fff" opacity="0.15"/>
  <circle cx="185" cy="245" r="2" fill="#fff" opacity="0.2"/>
  <circle cx="168" cy="130" r="1.5" fill="#fff" opacity="0.15"/>
</svg>
